<mxfile host="app.diagrams.net" modified="2023-03-03T18:12:41.876Z" agent="5.0 (Windows NT 10.0; Win64; x64) AppleWebKit/537.36 (KHTML, like Gecko) Chrome/110.0.0.0 Safari/537.36" etag="8PRsC5h_9hXKUptMI_uk" version="21.0.2" type="github">
  <diagram id="C5RBs43oDa-KdzZeNtuy" name="Page-1">
    <mxGraphModel dx="1430" dy="770" grid="1" gridSize="10" guides="1" tooltips="1" connect="1" arrows="1" fold="1" page="1" pageScale="1" pageWidth="827" pageHeight="1169" math="0" shadow="0">
      <root>
        <mxCell id="WIyWlLk6GJQsqaUBKTNV-0" />
        <mxCell id="WIyWlLk6GJQsqaUBKTNV-1" parent="WIyWlLk6GJQsqaUBKTNV-0" />
        <mxCell id="7e_GaBvqQk4L85InQLxT-0" style="edgeStyle=orthogonalEdgeStyle;rounded=0;orthogonalLoop=1;jettySize=auto;html=1;exitX=0.5;exitY=1;exitDx=0;exitDy=0;entryX=0.5;entryY=0;entryDx=0;entryDy=0;" edge="1" parent="WIyWlLk6GJQsqaUBKTNV-1" source="WIyWlLk6GJQsqaUBKTNV-3" target="WIyWlLk6GJQsqaUBKTNV-6">
          <mxGeometry relative="1" as="geometry" />
        </mxCell>
        <mxCell id="WIyWlLk6GJQsqaUBKTNV-3" value="Home" style="rounded=1;whiteSpace=wrap;html=1;fontSize=12;glass=0;strokeWidth=1;shadow=0;" parent="WIyWlLk6GJQsqaUBKTNV-1" vertex="1">
          <mxGeometry x="125" y="30" width="120" height="40" as="geometry" />
        </mxCell>
        <mxCell id="7e_GaBvqQk4L85InQLxT-1" style="edgeStyle=orthogonalEdgeStyle;rounded=0;orthogonalLoop=1;jettySize=auto;html=1;exitX=1;exitY=0.5;exitDx=0;exitDy=0;entryX=0;entryY=0.5;entryDx=0;entryDy=0;" edge="1" parent="WIyWlLk6GJQsqaUBKTNV-1" source="WIyWlLk6GJQsqaUBKTNV-6" target="7e_GaBvqQk4L85InQLxT-3">
          <mxGeometry relative="1" as="geometry">
            <mxPoint x="350" y="184.8571428571429" as="targetPoint" />
          </mxGeometry>
        </mxCell>
        <mxCell id="7e_GaBvqQk4L85InQLxT-2" style="edgeStyle=orthogonalEdgeStyle;rounded=0;orthogonalLoop=1;jettySize=auto;html=1;entryX=0.5;entryY=0;entryDx=0;entryDy=0;" edge="1" parent="WIyWlLk6GJQsqaUBKTNV-1" source="WIyWlLk6GJQsqaUBKTNV-6" target="7e_GaBvqQk4L85InQLxT-4">
          <mxGeometry relative="1" as="geometry">
            <mxPoint x="185" y="310" as="targetPoint" />
          </mxGeometry>
        </mxCell>
        <mxCell id="WIyWlLk6GJQsqaUBKTNV-6" value="search bar and a list of popular movie genres." style="rhombus;whiteSpace=wrap;html=1;shadow=0;fontFamily=Helvetica;fontSize=12;align=center;strokeWidth=1;spacing=6;spacingTop=-4;" parent="WIyWlLk6GJQsqaUBKTNV-1" vertex="1">
          <mxGeometry x="100" y="130" width="170" height="130" as="geometry" />
        </mxCell>
        <mxCell id="7e_GaBvqQk4L85InQLxT-11" style="edgeStyle=orthogonalEdgeStyle;rounded=0;orthogonalLoop=1;jettySize=auto;html=1;entryX=0.5;entryY=0;entryDx=0;entryDy=0;" edge="1" parent="WIyWlLk6GJQsqaUBKTNV-1" source="7e_GaBvqQk4L85InQLxT-3" target="7e_GaBvqQk4L85InQLxT-10">
          <mxGeometry relative="1" as="geometry" />
        </mxCell>
        <mxCell id="7e_GaBvqQk4L85InQLxT-3" value="search for a specific movie" style="rhombus;whiteSpace=wrap;html=1;" vertex="1" parent="WIyWlLk6GJQsqaUBKTNV-1">
          <mxGeometry x="390" y="141.25" width="130" height="107.5" as="geometry" />
        </mxCell>
        <mxCell id="7e_GaBvqQk4L85InQLxT-6" style="edgeStyle=orthogonalEdgeStyle;rounded=0;orthogonalLoop=1;jettySize=auto;html=1;exitX=0.5;exitY=1;exitDx=0;exitDy=0;entryX=0.5;entryY=0;entryDx=0;entryDy=0;" edge="1" parent="WIyWlLk6GJQsqaUBKTNV-1" source="7e_GaBvqQk4L85InQLxT-4" target="7e_GaBvqQk4L85InQLxT-5">
          <mxGeometry relative="1" as="geometry" />
        </mxCell>
        <mxCell id="7e_GaBvqQk4L85InQLxT-4" value="Select genre" style="rhombus;whiteSpace=wrap;html=1;" vertex="1" parent="WIyWlLk6GJQsqaUBKTNV-1">
          <mxGeometry x="120" y="310" width="130" height="107.5" as="geometry" />
        </mxCell>
        <mxCell id="7e_GaBvqQk4L85InQLxT-9" style="edgeStyle=orthogonalEdgeStyle;rounded=0;orthogonalLoop=1;jettySize=auto;html=1;exitX=1;exitY=0.5;exitDx=0;exitDy=0;entryX=0;entryY=0.5;entryDx=0;entryDy=0;" edge="1" parent="WIyWlLk6GJQsqaUBKTNV-1" source="7e_GaBvqQk4L85InQLxT-5" target="7e_GaBvqQk4L85InQLxT-7">
          <mxGeometry relative="1" as="geometry" />
        </mxCell>
        <mxCell id="7e_GaBvqQk4L85InQLxT-5" value="list of movies in that genre" style="rhombus;whiteSpace=wrap;html=1;" vertex="1" parent="WIyWlLk6GJQsqaUBKTNV-1">
          <mxGeometry x="120" y="450" width="130" height="130" as="geometry" />
        </mxCell>
        <mxCell id="7e_GaBvqQk4L85InQLxT-7" value="view more details" style="rhombus;whiteSpace=wrap;html=1;" vertex="1" parent="WIyWlLk6GJQsqaUBKTNV-1">
          <mxGeometry x="300" y="475" width="80" height="80" as="geometry" />
        </mxCell>
        <mxCell id="7e_GaBvqQk4L85InQLxT-13" style="edgeStyle=orthogonalEdgeStyle;rounded=0;orthogonalLoop=1;jettySize=auto;html=1;entryX=0;entryY=0.5;entryDx=0;entryDy=0;" edge="1" parent="WIyWlLk6GJQsqaUBKTNV-1" source="7e_GaBvqQk4L85InQLxT-10" target="7e_GaBvqQk4L85InQLxT-14">
          <mxGeometry relative="1" as="geometry">
            <mxPoint x="540" y="330" as="targetPoint" />
          </mxGeometry>
        </mxCell>
        <mxCell id="7e_GaBvqQk4L85InQLxT-10" value="list of search results" style="rhombus;whiteSpace=wrap;html=1;" vertex="1" parent="WIyWlLk6GJQsqaUBKTNV-1">
          <mxGeometry x="405" y="280" width="100" height="100" as="geometry" />
        </mxCell>
        <mxCell id="7e_GaBvqQk4L85InQLxT-14" value="view more details" style="rhombus;whiteSpace=wrap;html=1;" vertex="1" parent="WIyWlLk6GJQsqaUBKTNV-1">
          <mxGeometry x="540" y="290" width="80" height="80" as="geometry" />
        </mxCell>
      </root>
    </mxGraphModel>
  </diagram>
</mxfile>
